<svg width="50" height="50" viewBox="0 0 50 50" fill="none" xmlns="http://www.w3.org/2000/svg">
<path fill-rule="evenodd" clip-rule="evenodd" d="M0 7.62199L0.0117569 49.2026H41.58L41.5755 7.62199H0Z" fill="white"/>
<path d="M31.9989 24.0471C29.8338 24.0471 29.5849 22.5786 29.5849 20.1399C29.5849 17.6759 29.8338 16.2577 31.9989 16.2577C34.164 16.2577 34.4129 17.6759 34.4129 20.1399C34.4129 22.5786 34.164 24.0471 31.9989 24.0471ZM31.9989 27.3325C37.0264 27.3325 38.196 24.5455 38.196 20.0155C38.196 15.6602 37.0264 12.7479 31.9989 12.7479C26.9965 12.7479 25.7767 15.6103 25.7767 20.0155C25.7767 24.4705 27.0462 27.3325 31.9989 27.3325ZM19.5081 16.0335C21.4491 16.0335 21.5736 16.9543 21.6235 18.8208H17.1189C17.2183 16.9293 17.6663 16.0335 19.5081 16.0335ZM19.5081 27.283C21.8724 27.283 23.4904 26.835 24.8342 26.1129L23.4157 23.2508C22.5196 23.6739 21.5736 24.0725 19.7073 24.0725C17.8408 24.0725 17.293 23.4002 17.1436 21.7326H24.9336C25.0083 16.5063 25.1824 12.7479 19.6076 12.7479C14.8287 12.7479 13.5099 15.5105 13.5099 20.0155C13.5099 24.5949 14.5304 27.283 19.5081 27.283ZM9.30697 27.3078C10.999 27.3078 12.0943 27.0592 13.5875 26.337L12.169 23.4747C11.4721 23.7738 10.7504 24.0471 9.80465 24.0471C7.76403 24.0471 7.21627 22.9773 7.21627 20.1399C7.21627 17.3026 7.81341 16.2577 9.72993 16.2577C10.5763 16.2577 11.2232 16.4563 11.7957 16.7548L13.4384 13.4945C12.4926 13.0465 11.3723 12.7479 9.53082 12.7479C4.47835 12.7479 3.38342 15.5105 3.38342 20.0155C3.38342 24.5949 4.55307 27.3078 9.30697 27.3078Z" fill="#1F3980"/>
<path d="M32.8237 45.5382C33.726 45.5382 34.1838 45.2995 34.1838 44.5005C34.1838 43.7976 33.7131 43.6626 32.8688 43.482C32.192 43.3335 31.8955 43.2303 31.8955 42.7729C31.8955 42.399 32.1147 42.1604 32.8366 42.1604C33.2814 42.1604 33.6358 42.2699 33.9066 42.4248L34.0614 42.1538C33.752 41.9736 33.3522 41.8575 32.83 41.8575C31.9083 41.8575 31.573 42.2055 31.573 42.7665C31.573 43.4688 32.0371 43.6106 32.8366 43.785C33.5778 43.9461 33.8616 44.0359 33.8616 44.5066C33.8616 45.0932 33.5263 45.2417 32.8366 45.2417C32.4757 45.2417 32.0308 45.177 31.5988 44.9003L31.4249 45.1518C31.902 45.4673 32.4047 45.5382 32.8237 45.5382ZM29.5745 45.4673H29.9033V43.5074C29.9033 42.7665 30.2453 42.2187 31.1218 42.2187V41.8963C30.4387 41.8963 30.0001 42.1992 29.8714 42.5475L29.8326 41.9414L29.5745 41.9541V45.4673ZM27.2476 42.1538C28.2724 42.1538 28.3175 42.7536 28.35 43.456H25.9518C25.9906 42.6892 26.2614 42.1538 27.2476 42.1538ZM27.2798 45.5382C27.9114 45.5382 28.2919 45.3515 28.6144 45.1126L28.4337 44.8742C28.1436 45.0871 27.8726 45.2483 27.2798 45.2483C26.1713 45.2483 25.9518 44.6167 25.9455 43.7588H28.6658C28.6721 42.7857 28.627 41.8575 27.2539 41.8575C25.9262 41.8575 25.6296 42.6565 25.6296 43.6944C25.6296 44.7322 25.8875 45.5382 27.2798 45.5382ZM23.6763 45.5382C24.5787 45.5382 25.0365 45.2995 25.0365 44.5005C25.0365 43.7976 24.5657 43.6626 23.7214 43.482C23.0446 43.3335 22.7481 43.2303 22.7481 42.7729C22.7481 42.399 22.9674 42.1604 23.689 42.1604C24.1339 42.1604 24.4885 42.2699 24.7592 42.4248L24.9141 42.1538C24.6046 41.9736 24.2048 41.8575 23.6826 41.8575C22.761 41.8575 22.4257 42.2055 22.4257 42.7665C22.4257 43.4688 22.8897 43.6106 23.689 43.785C24.4307 43.9461 24.7144 44.0359 24.7144 44.5066C24.7144 45.0932 24.379 45.2417 23.689 45.2417C23.3283 45.2417 22.8834 45.177 22.4515 44.9003L22.2777 45.1518C22.7544 45.4673 23.2573 45.5382 23.6763 45.5382ZM21.1623 41.4256H21.4907V40.8005H21.1623V41.4256ZM21.1623 45.4673H21.4907V41.9414H21.1623V45.4673ZM17.2301 45.4673H17.5588V43.456C17.5588 42.7211 17.752 42.1731 18.7705 42.1731C19.7311 42.1731 19.7891 42.6504 19.7891 43.3462V45.4673H20.1179V43.3077C20.1179 42.4375 20.0084 41.8575 18.8414 41.8575C18.0037 41.8575 17.6683 42.128 17.5266 42.4375L17.4879 41.9414L17.2301 41.9541V45.4673ZM14.3292 45.2483C13.6137 45.2483 13.4007 44.9646 13.4007 44.4811C13.4007 43.7206 13.8455 43.5272 15.4702 43.5272H15.6894V43.8301C15.6894 44.8095 15.296 45.2483 14.3292 45.2483ZM14.2904 45.5382C15.1221 45.5382 15.496 45.3191 15.7213 44.8808C15.7213 45.2802 15.844 45.4739 16.2697 45.4739C16.3274 45.4739 16.3725 45.4739 16.3983 45.4607V45.1708C16.0374 45.1708 16.0119 45.119 16.0119 44.7066V43.2884C16.0119 42.2762 15.8374 41.8575 14.6773 41.8575C14.1355 41.8575 13.6392 42.0636 13.4139 42.2187L13.5878 42.4762C13.8134 42.3216 14.2066 42.1604 14.6577 42.1604C15.5537 42.1604 15.6828 42.4762 15.6894 43.2237H15.4572C13.7168 43.2237 13.0786 43.4947 13.0786 44.5005C13.0786 45.0932 13.33 45.5382 14.2904 45.5382ZM10.9321 46.3441C10.1068 46.3441 9.68776 46.209 9.68776 45.6995C9.68776 45.3382 9.84266 45.0035 10.9321 45.0035C11.9247 45.0035 12.2794 45.0998 12.2794 45.609C12.2794 46.0863 12.0278 46.3441 10.9321 46.3441ZM10.9514 43.8882C10.1973 43.8882 9.88778 43.6237 9.88778 43.0309C9.88778 42.4311 10.1973 42.1604 10.9514 42.1604C11.6284 42.1604 12.015 42.4311 12.015 43.0309C12.015 43.6237 11.7058 43.8882 10.9514 43.8882ZM10.9514 44.1778C11.9055 44.1778 12.3437 43.8169 12.3437 43.0309C12.3437 42.5409 12.1762 42.2503 11.8411 42.0699H12.4598V41.7931L11.3316 41.8831C11.2157 41.8639 11.0867 41.8575 10.9514 41.8575C9.99059 41.8575 9.56529 42.2377 9.56529 43.0309C9.56529 43.4947 9.71361 43.8108 10.0294 43.9913C9.91992 44.1137 9.84895 44.2746 9.84895 44.4485C9.84895 44.6422 9.9329 44.7969 10.1004 44.8546C9.53315 44.9646 9.35898 45.3253 9.35898 45.738C9.35898 46.4403 9.86183 46.6211 10.9254 46.6211C12.2147 46.6211 12.6081 46.2729 12.6081 45.5964C12.6081 44.8742 12.1632 44.7129 10.9514 44.7129C10.3326 44.7129 10.1585 44.6618 10.1585 44.417C10.1585 44.3069 10.2165 44.1911 10.3001 44.1006C10.4806 44.1523 10.6936 44.1778 10.9514 44.1778ZM7.56685 45.4673H7.89563V43.5074C7.89563 42.7665 8.23729 42.2187 9.11414 42.2187V41.8963C8.43072 41.8963 7.99214 42.1992 7.86339 42.5475L7.82497 41.9414L7.56685 41.9541V45.4673ZM5.03331 45.2351C4.07951 45.2351 3.71191 44.7129 3.71191 43.701C3.71191 42.6892 4.07951 42.1664 5.03331 42.1664C5.99401 42.1664 6.3679 42.6892 6.3679 43.701C6.3679 44.7129 5.99401 45.2351 5.03331 45.2351ZM5.03331 45.5382C6.21989 45.5382 6.69669 44.9193 6.69669 43.6944C6.69669 42.4762 6.21989 41.8575 5.03331 41.8575C3.84725 41.8575 3.38342 42.4762 3.38342 43.6944C3.38342 44.9193 3.84725 45.5382 5.03331 45.5382ZM17.8425 36.4358H18.4937V38.821C18.4937 39.3498 18.5966 39.672 19.3443 39.672C19.3765 39.672 19.8084 39.672 19.8344 39.6659V39.3688H19.3831C18.8673 39.3688 18.8159 39.1435 18.8159 38.7951V36.4358H19.8344V36.1395H18.8159V34.9664L18.5515 35.0052L18.5 36.1395H17.8425V36.4358ZM14.2453 39.6659H14.5741V37.6543C14.5741 36.9197 14.7675 36.372 15.786 36.372C16.7464 36.372 16.8045 36.8484 16.8045 37.5451V39.6659H17.1332V37.5066C17.1332 36.6361 17.0234 36.0556 15.8569 36.0556C15.0186 36.0556 14.6835 36.3268 14.5416 36.6361L14.5031 36.1395L14.2453 36.1521V39.6659ZM11.9181 36.3524C12.9432 36.3524 12.9883 36.9519 13.0205 37.6543H10.6226C10.6611 36.8872 10.9321 36.3524 11.9181 36.3524ZM11.9506 39.7367C12.5819 39.7367 12.9627 39.5495 13.2846 39.3113L13.1044 39.0728C12.8142 39.2851 12.5435 39.4464 11.9506 39.4464C10.8416 39.4464 10.6226 38.8147 10.616 37.9577H13.3363C13.343 36.9844 13.2978 36.0556 11.9247 36.0556C10.5964 36.0556 10.3001 36.8553 10.3001 37.8931C10.3001 38.9311 10.5579 39.7367 11.9506 39.7367ZM8.22441 39.6982H8.57265L9.9843 36.1395H9.64892L8.40487 39.3047L7.16082 36.1395H6.81905L8.22441 39.6982ZM5.00138 36.3524C6.02615 36.3524 6.07126 36.9519 6.10381 37.6543H3.70562C3.74434 36.8872 4.01513 36.3524 5.00138 36.3524ZM5.03331 39.7367C5.66523 39.7367 6.04541 39.5495 6.3679 39.3113L6.18744 39.0728C5.89749 39.2851 5.6267 39.4464 5.03331 39.4464C3.92491 39.4464 3.70561 38.8147 3.69923 37.9577H6.41961C6.4259 36.9844 6.38078 36.0556 5.00767 36.0556C3.67977 36.0556 3.38342 36.8553 3.38342 37.8931C3.38342 38.9311 3.64124 39.7367 5.03331 39.7367ZM23.5473 33.8642H23.8761V31.8529C23.8761 31.1178 24.0695 30.57 25.088 30.57C26.0484 30.57 26.1065 31.0473 26.1065 31.7431V33.8642H26.4351V31.7043C26.4351 30.8341 26.3254 30.2542 25.1589 30.2542C24.3209 30.2542 23.9855 30.5249 23.8436 30.8341L23.8051 30.3378L23.5473 30.3511V33.8642ZM20.6464 33.6453C19.9309 33.6453 19.7182 33.3614 19.7182 32.8777C19.7182 32.1173 20.163 31.9236 21.7874 31.9236H22.0067V32.227C22.0067 33.2065 21.6132 33.6453 20.6464 33.6453ZM20.6079 33.9353C21.4393 33.9353 21.8132 33.7157 22.0388 33.2777C22.0388 33.6769 22.1613 33.8706 22.5866 33.8706C22.6449 33.8706 22.69 33.8706 22.7159 33.8576V33.5677C22.3546 33.5677 22.3287 33.5157 22.3287 33.1033V31.685C22.3287 30.6731 22.1549 30.2542 20.9945 30.2542C20.4531 30.2542 19.9567 30.4602 19.7311 30.6152L19.905 30.8727C20.1306 30.7186 20.5241 30.5574 20.9752 30.5574C21.8712 30.5574 22 30.8727 22.0067 31.6206H21.7744C20.0341 31.6206 19.3958 31.8915 19.3958 32.8973C19.3958 33.4901 19.6472 33.9353 20.6079 33.9353ZM18.1968 29.8225H18.5256V29.1966H18.1968V29.8225ZM18.1968 33.8642H18.5256V30.3378H18.1968V33.8642ZM15.7471 33.6191C14.7868 33.6191 14.3936 33.2709 14.3936 32.0981C14.3936 30.9181 14.7933 30.5634 15.7471 30.5634C16.7016 30.5634 16.9719 31.1307 16.9719 32.0981C16.9719 33.0645 16.6947 33.6191 15.7471 33.6191ZM14.0648 34.9278H14.3936V33.2904C14.587 33.735 14.9802 33.9217 15.786 33.9217C16.9591 33.9217 17.3007 33.2257 17.3007 32.0912C17.3007 30.9502 16.9591 30.2542 15.7987 30.2542C14.9672 30.2542 14.5548 30.4602 14.3615 30.9114L14.3226 30.3378L14.0648 30.3511V34.9278ZM11.9118 33.9353C12.8142 33.9353 13.2719 33.6965 13.2719 32.8973C13.2719 32.1943 12.8015 32.0592 11.9569 31.8788C11.2799 31.7301 10.9835 31.6273 10.9835 31.1698C10.9835 30.7956 11.2025 30.5574 11.9247 30.5574C12.3696 30.5574 12.7239 30.6665 12.9946 30.8215L13.1492 30.5505C12.84 30.3703 12.4406 30.2542 11.9184 30.2542C10.9965 30.2542 10.6611 30.6022 10.6611 31.1634C10.6611 31.8655 11.1252 32.0072 11.9247 32.1819C12.6658 32.3429 12.9495 32.4328 12.9495 32.9032C12.9495 33.4901 12.6144 33.6381 11.9247 33.6381C11.5637 33.6381 11.1189 33.5738 10.6873 33.297L10.5128 33.5484C10.9898 33.8642 11.4925 33.9353 11.9118 33.9353ZM8.07609 33.6453C7.36084 33.6453 7.14784 33.3614 7.14784 32.8777C7.14784 32.1173 7.5927 31.9236 9.21704 31.9236H9.43653V32.227C9.43653 33.2065 9.04317 33.6453 8.07609 33.6453ZM8.03726 33.9353C8.8693 33.9353 9.24289 33.7157 9.46877 33.2777C9.46877 33.6769 9.59114 33.8706 10.0165 33.8706C10.0745 33.8706 10.1196 33.8706 10.1455 33.8576V33.5677C9.78427 33.5677 9.75873 33.5157 9.75873 33.1033V31.685C9.75873 30.6731 9.58455 30.2542 8.42444 30.2542C7.88296 30.2542 7.38639 30.4602 7.16082 30.6152L7.33489 30.8727C7.56056 30.7186 7.95362 30.5574 8.40487 30.5574C9.30088 30.5574 9.42994 30.8727 9.43653 31.6206H9.20436C7.46364 31.6206 6.82564 31.8915 6.82564 32.8973C6.82564 33.4901 7.07717 33.9353 8.03726 33.9353ZM5.02693 33.9353C5.58159 33.9353 5.92304 33.7542 6.25841 33.4579L6.03913 33.2453C5.76185 33.4901 5.45892 33.6318 5.03331 33.6318C4.02173 33.6318 3.71191 33.0711 3.71191 32.0981C3.71191 31.1178 4.0344 30.5634 5.03331 30.5634C5.53019 30.5634 5.8394 30.7763 6.01986 30.9565L6.25182 30.7309C6.01986 30.4861 5.66523 30.2542 5.03331 30.2542C3.76361 30.2542 3.38342 30.9439 3.38342 32.0912C3.38342 33.2389 3.75732 33.9353 5.02693 33.9353Z" fill="#1F3980"/>
<path d="M49.2205 13.1696V7.62939e-06L36.051 0.000286102L31.7081 4.34268L44.8828 4.31855L44.8773 17.5283L49.2205 13.1696Z" fill="#E40A66"/>
</svg>
