<svg width="90" height="24" viewBox="0 0 90 24" fill="none" xmlns="http://www.w3.org/2000/svg">
<g clip-path="url(#clip0_1097_5992)">
<path opacity="0.6" d="M11.0065 21.9536C17.0852 21.9536 22.013 17.0391 22.013 10.9768C22.013 4.91448 17.0852 0 11.0065 0C4.92778 0 0 4.91448 0 10.9768C0 17.0391 4.92778 21.9536 11.0065 21.9536Z" fill="white"/>
<path d="M20.359 7.40556C20.2317 7.49444 20.0768 7.53888 19.9071 7.53888C19.4593 7.53888 18.8864 7.2405 18.358 6.73049C18.3368 6.70509 18.3156 6.68393 18.2901 6.66277C17.5517 5.93479 16.5756 5.7528 15.9857 5.71471C15.6695 5.69354 15.4637 5.71471 15.4637 5.71471C14.3094 5.71471 13.2017 6.18662 12.4272 7.03734C11.9477 7.55793 11.2602 7.88594 10.4963 7.88594C9.02787 7.88594 7.83959 6.67758 7.8799 5.20258C7.9181 3.88841 8.97907 2.77528 10.2925 2.67582C11.0968 2.61445 11.8331 2.91707 12.3487 3.43554C13.1529 4.2397 14.2139 4.73067 15.3513 4.73067H16.4929C16.7921 4.73067 17.0212 4.46825 16.9936 4.16987C16.9512 3.71065 17.0594 3.34031 17.3268 3.14774C17.9209 2.72873 19.0837 3.3382 19.9198 4.51481C20.758 5.68931 20.9532 6.98232 20.359 7.40556Z" fill="white"/>
<path d="M20.359 14.6874C20.2317 14.5985 20.0768 14.5541 19.9071 14.5541C19.4593 14.5541 18.8864 14.8525 18.358 15.3625C18.3368 15.3879 18.3156 15.409 18.2901 15.4302C17.5517 16.1582 16.5756 16.3402 15.9857 16.3783C15.6695 16.3994 15.4637 16.3783 15.4637 16.3783C14.3094 16.3783 13.2017 15.9064 12.4272 15.0556C11.9477 14.535 11.2602 14.207 10.4963 14.207C9.02787 14.207 7.83959 15.4154 7.8799 16.8904C7.9181 18.2046 8.97907 19.3177 10.2925 19.4172C11.0968 19.4785 11.8331 19.1759 12.3487 18.6574C13.1529 17.8533 14.2139 17.3623 15.3513 17.3623H16.4929C16.7921 17.3623 17.0212 17.6247 16.9936 17.9231C16.9512 18.3823 17.0594 18.7527 17.3268 18.9452C17.9209 19.3642 19.0837 18.7548 19.9198 17.5782C20.758 16.4037 20.9532 15.1107 20.359 14.6874Z" fill="white"/>
<path opacity="0.3" d="M21.8759 10.9786C21.8759 12.4219 21.7358 13.5879 21.5597 13.5879C21.4515 13.5879 21.3517 13.1244 21.2966 12.424C21.2541 11.8695 20.7831 11.4399 20.2229 11.4399H20.1804C19.3974 11.4399 18.6399 11.7976 18.207 12.443V12.4367C18.4723 12.0198 18.6272 11.5182 18.6272 10.9765C18.6272 10.4347 18.4723 9.93319 18.207 9.51629C18.642 10.1639 19.4038 10.5257 20.1868 10.5257H20.2208C20.7809 10.5257 21.2499 10.1004 21.2966 9.54169C21.3517 8.83487 21.4472 8.36719 21.5597 8.36719C21.7358 8.36719 21.8759 9.53534 21.8759 10.9765V10.9786Z" fill="white"/>
<path d="M18.673 10.9783C18.673 12.375 17.6396 13.5135 16.341 13.5854C16.3261 13.5876 16.307 13.5876 16.2922 13.5876H16.271C15.6917 13.5812 15.1612 13.3463 14.7516 12.9654C14.5883 12.8109 14.4185 12.667 14.2381 12.5337C13.3278 11.8417 12.2456 11.4269 11.0913 11.4269H10.7178C9.37465 11.4269 8.04843 11.8925 7.09568 12.8342C6.62461 13.304 5.9753 13.5897 5.25596 13.5897C3.78758 13.5897 2.59929 12.3813 2.64173 10.9063C2.67992 9.57945 3.75787 8.46209 5.08196 8.37744C5.87132 8.32877 6.58854 8.62504 7.0978 9.13082C8.02934 10.0556 9.30887 10.5381 10.6202 10.5381H11.0913C12.2456 10.5381 13.3278 10.1212 14.2339 9.43343C14.4143 9.30011 14.5861 9.15198 14.7495 8.99749C15.1569 8.61446 15.6895 8.37744 16.2688 8.37109H16.2901C16.3049 8.37109 16.324 8.37109 16.3389 8.37321C17.0964 8.38802 17.7627 8.79645 18.1828 9.41862C18.2083 9.45248 18.2295 9.48634 18.2507 9.5202C18.516 9.93709 18.6709 10.4365 18.6709 10.9804L18.673 10.9783Z" fill="white"/>
<path opacity="0.3" d="M15.9427 2.52791C16.2093 2.06737 15.6841 1.2672 14.7697 0.74068C13.8552 0.214157 12.8978 0.160663 12.6312 0.621201C12.3646 1.08174 12.8898 1.88191 13.8042 2.40843C14.7186 2.93496 15.6761 2.98845 15.9427 2.52791Z" fill="white"/>
<path opacity="0.3" d="M14.7696 21.2203C15.6841 20.6937 16.2092 19.8936 15.9426 19.433C15.676 18.9725 14.7186 19.026 13.8042 19.5525C12.8897 20.079 12.3646 20.8792 12.6312 21.3397C12.8978 21.8003 13.8552 21.7468 14.7696 21.2203Z" fill="white"/>
<path d="M25.3633 14.2011H35.2261V11.5135H28.1112V9.12214H34.4664V6.4155H28.1112V4.04111H35.2261V1.35352H25.3633V14.2011Z" fill="white"/>
<path d="M53.2213 1.35352L47.8422 13.9937L44.7548 9.26816C44.9203 9.19621 45.0879 9.11791 45.2513 9.03115C45.786 8.74969 46.2359 8.33279 46.586 7.79316C46.9425 7.24083 47.125 6.51708 47.125 5.64308C47.125 4.34796 46.6942 3.29409 45.8476 2.51109C45.0158 1.7429 43.906 1.35352 42.548 1.35352H36.3477V14.2032H39.0956V9.82896H41.9411L44.7039 14.2032H50.7662L52.1646 10.8955H56.8647L58.2631 14.2032H61.2741L55.8059 1.35352H53.2213ZM39.0934 4.02418H42.3909C43.036 4.02418 43.5262 4.17443 43.889 4.48128C44.2222 4.76274 44.375 5.13096 44.375 5.64308C44.375 6.04305 44.2901 6.33932 44.1203 6.52978C43.9166 6.75833 43.6726 6.9107 43.3755 6.99958C43.019 7.10539 42.6647 7.15829 42.323 7.15829H39.0956V4.0263L39.0934 4.02418ZM53.2723 8.25873L54.5136 5.29814L55.7549 8.25873H53.2744H53.2723Z" fill="white"/>
<path d="M67.5269 9.37209C67.0856 9.19856 66.6124 9.06101 66.1158 8.96154C65.6299 8.8642 65.1652 8.7605 64.7323 8.65258C64.3101 8.54677 63.9621 8.40498 63.699 8.22933C63.4571 8.0685 63.3382 7.84207 63.3382 7.53733C63.3382 6.78396 63.9706 6.41785 65.2713 6.41785C65.9631 6.41785 66.4638 6.54059 66.7567 6.78607C67.0516 7.03156 67.215 7.31724 67.2574 7.65584L67.2702 7.76165H68.8234L68.8086 7.62833C68.7598 7.18604 68.6049 6.76703 68.3481 6.38611C68.0893 6.00307 67.7073 5.68564 67.2129 5.44228C66.7206 5.19891 66.0776 5.07617 65.3031 5.07617C64.1637 5.07617 63.2894 5.30261 62.6995 5.74701C62.1011 6.19988 61.7977 6.84321 61.7977 7.66007C61.7977 8.21664 61.9483 8.66316 62.2433 8.98905C62.5319 9.30649 62.9075 9.55408 63.3616 9.72761C63.8029 9.89479 64.2761 10.0323 64.7705 10.1382C65.2522 10.2397 65.719 10.3477 66.1562 10.4556C66.5763 10.5614 66.9243 10.7074 67.1853 10.8936C67.4293 11.0672 67.5482 11.3042 67.5482 11.6216C67.5482 11.8819 67.4781 12.0851 67.336 12.248C67.1874 12.4152 67.0028 12.5443 66.7864 12.6289C66.5615 12.7178 66.3238 12.7792 66.0798 12.8109C65.8336 12.8448 65.6236 12.8617 65.458 12.8617C64.9254 12.8617 64.4904 12.7813 64.1637 12.6247C63.8411 12.4702 63.5992 12.265 63.4464 12.0152C63.2894 11.7613 63.1939 11.4968 63.1621 11.228L63.1494 11.1222H61.5664L61.5749 11.2513C61.611 11.7761 61.7807 12.2671 62.0778 12.7136C62.377 13.1601 62.8141 13.5262 63.3785 13.7971C63.9387 14.068 64.6347 14.2055 65.4432 14.2055C66.5339 14.2055 67.4208 13.9749 68.0765 13.522C68.7471 13.0585 69.0866 12.3792 69.0866 11.5031C69.0866 10.936 68.938 10.4789 68.6431 10.1403C68.3545 9.81015 67.9789 9.55408 67.5248 9.37632L67.5269 9.37209Z" fill="white"/>
<path d="M76.7227 5.68776C76.0671 5.28145 75.2756 5.07617 74.3716 5.07617C73.4677 5.07617 72.6889 5.28145 72.029 5.68776C71.3691 6.09407 70.8534 6.64852 70.4991 7.33629C70.1468 8.02194 69.9686 8.79648 69.9686 9.63873C69.9686 10.481 70.1468 11.2407 70.4991 11.9327C70.8534 12.6268 71.367 13.1855 72.029 13.5918C72.6889 13.9981 73.4783 14.2034 74.3716 14.2034C75.265 14.2034 76.0692 13.9981 76.7227 13.5918C77.3784 13.1855 77.8898 12.6268 78.242 11.9348C78.5943 11.2428 78.7725 10.4725 78.7725 9.64085C78.7725 8.80918 78.5943 8.02406 78.242 7.33841C77.8877 6.65064 77.3763 6.09619 76.7227 5.68987V5.68776ZM75.9355 12.3623C75.5153 12.6459 74.9891 12.7898 74.3716 12.7898C73.7541 12.7898 73.2428 12.6459 72.8162 12.3623C72.3876 12.0787 72.0608 11.6915 71.8402 11.2153C71.6195 10.7349 71.5049 10.2038 71.5049 9.63873C71.5049 9.0737 71.6173 8.52772 71.838 8.05369C72.0566 7.58389 72.3855 7.20085 72.8141 6.91516C73.2406 6.63159 73.7648 6.48769 74.3695 6.48769C74.9743 6.48769 75.5132 6.63159 75.9334 6.91516C76.3556 7.20085 76.6824 7.58389 76.901 8.05369C77.1217 8.52984 77.2341 9.06312 77.2341 9.63873C77.2341 10.2143 77.1217 10.7349 76.8989 11.2153C76.6782 11.6915 76.3535 12.0787 75.9313 12.3623H75.9355Z" fill="white"/>
<path d="M81.7267 2.36291C81.1304 2.85598 80.8291 3.59878 80.8291 4.57435V5.21133H79.3438V6.58899H80.8291V14.0635H82.3654V6.5911H84.3685V5.21345H82.3654V4.68016C82.3654 4.12148 82.5076 3.71517 82.7898 3.4718C83.0762 3.22209 83.5091 3.09723 84.0736 3.09723H84.3664V1.63281H84.1415C83.1272 1.63281 82.3145 1.88041 81.7246 2.36714L81.7267 2.36291Z" fill="white"/>
<path d="M88.0145 5.21207V2.13086H86.4761V5.21207H84.7148V6.59184H86.4761V14.0642H88.0145V6.59184H90.0006V5.21207H88.0145Z" fill="white"/>
<path d="M28.1197 17.8713C28.4889 18.0596 28.7732 18.3284 28.9706 18.6776C29.1679 19.0268 29.2655 19.4373 29.2655 19.9113C29.2655 20.3854 29.1679 20.7938 28.9706 21.1409C28.7732 21.4879 28.491 21.7524 28.1197 21.9366C27.7483 22.1207 27.3112 22.2117 26.8062 22.2117H25.3633V17.5898H26.8062C27.3112 17.5898 27.7483 17.6851 28.1197 17.8713ZM28.1749 21.2382C28.4889 20.9229 28.6459 20.4785 28.6459 19.9092C28.6459 19.34 28.4889 18.8871 28.1706 18.5633C27.8544 18.2416 27.3982 18.0787 26.8041 18.0787H25.9659V21.7122H26.8041C27.4025 21.7122 27.8587 21.5535 28.1727 21.2382H28.1749Z" fill="white"/>
<path d="M30.0837 17.8666C30.0052 17.7862 29.9648 17.6889 29.9648 17.5746C29.9648 17.4603 30.0052 17.363 30.0837 17.2826C30.1643 17.2022 30.2619 17.1641 30.3765 17.1641C30.4911 17.1641 30.5823 17.2043 30.6587 17.2826C30.7372 17.3609 30.7754 17.4582 30.7754 17.5746C30.7754 17.691 30.7372 17.7862 30.6587 17.8666C30.5823 17.9449 30.4868 17.9852 30.3765 17.9852C30.2662 17.9852 30.1643 17.9449 30.0837 17.8666ZM30.6693 18.5756V22.2091H30.0646V18.5756H30.6693Z" fill="white"/>
<path d="M34.0278 18.7207C34.2655 18.8583 34.4416 19.0318 34.5562 19.2371V18.5747H35.1673V22.2887C35.1673 22.6188 35.0973 22.9151 34.9551 23.1733C34.8129 23.4314 34.6113 23.6346 34.3461 23.7806C34.083 23.9266 33.7753 23.9986 33.4252 23.9986C32.9456 23.9986 32.5467 23.8864 32.2284 23.66C31.9101 23.4357 31.7213 23.1267 31.664 22.7394H32.2624C32.3281 22.9595 32.4661 23.1394 32.674 23.2727C32.882 23.4082 33.1324 23.4759 33.4252 23.4759C33.7583 23.4759 34.0299 23.3722 34.24 23.1648C34.4501 22.9574 34.5562 22.6654 34.5562 22.2908V21.529C34.4373 21.7406 34.2591 21.9183 34.0236 22.0601C33.7902 22.2019 33.5143 22.2717 33.1981 22.2717C32.882 22.2717 32.5806 22.1913 32.3175 22.0326C32.0544 21.8739 31.8465 21.6496 31.6958 21.3618C31.5451 21.074 31.4688 20.7481 31.4688 20.3798C31.4688 20.0116 31.5451 19.6836 31.6958 19.4022C31.8465 19.1207 32.0544 18.9027 32.3175 18.7482C32.5806 18.5938 32.8756 18.5176 33.1981 18.5176C33.5207 18.5176 33.788 18.5853 34.0257 18.7229L34.0278 18.7207ZM34.3907 19.6688C34.2803 19.4656 34.1297 19.309 33.9429 19.2011C33.7541 19.0932 33.5483 19.0382 33.3212 19.0382C33.0942 19.0382 32.8883 19.0911 32.7037 19.1969C32.517 19.3027 32.3685 19.4572 32.2581 19.6603C32.1478 19.8635 32.0905 20.1026 32.0905 20.3756C32.0905 20.6486 32.1456 20.8962 32.2581 21.1015C32.3685 21.3067 32.517 21.4634 32.7037 21.5713C32.8905 21.6792 33.0963 21.7342 33.3212 21.7342C33.5461 21.7342 33.7541 21.6792 33.9429 21.5713C34.1318 21.4634 34.2803 21.3067 34.3907 21.1015C34.501 20.8962 34.5583 20.6571 34.5583 20.382C34.5583 20.1069 34.5031 19.8698 34.3907 19.6646V19.6688Z" fill="white"/>
<path d="M36.2128 17.8666C36.1342 17.7862 36.0939 17.6889 36.0939 17.5746C36.0939 17.4603 36.1342 17.363 36.2128 17.2826C36.2913 17.2022 36.391 17.1641 36.5056 17.1641C36.6202 17.1641 36.7114 17.2043 36.7878 17.2826C36.8663 17.3609 36.9045 17.4582 36.9045 17.5746C36.9045 17.691 36.8663 17.7862 36.7878 17.8666C36.7114 17.9449 36.6159 17.9852 36.5056 17.9852C36.3952 17.9852 36.2934 17.9449 36.2128 17.8666ZM36.7984 18.5756V22.2091H36.1937V18.5756H36.7984Z" fill="white"/>
<path d="M38.5641 19.0736V21.2152C38.5641 21.3909 38.6023 21.5157 38.6766 21.5898C38.753 21.6639 38.8824 21.6998 39.0691 21.6998H39.5147V22.2099H38.9694C38.632 22.2099 38.3795 22.1337 38.2119 21.9771C38.0442 21.8226 37.9594 21.5686 37.9594 21.2152V19.0736H37.4883V18.5763H37.9594V17.6621H38.5641V18.5763H39.5147V19.0736H38.5641Z" fill="white"/>
<path d="M40.2501 19.4002C40.4008 19.1187 40.6088 18.9008 40.8719 18.7463C41.135 18.5918 41.4299 18.5156 41.7525 18.5156C42.075 18.5156 42.3487 18.5833 42.5843 18.7209C42.8198 18.8585 42.9938 19.032 43.1105 19.2373V18.5749H43.7216V22.2084H43.1105V21.5312C42.9917 21.7429 42.8113 21.9185 42.5758 22.0582C42.3381 22.1978 42.0623 22.2677 41.7482 22.2677C41.4342 22.2677 41.1329 22.1873 40.8719 22.0285C40.6109 21.8698 40.4029 21.6455 40.2544 21.3577C40.1037 21.0699 40.0273 20.744 40.0273 20.3758C40.0273 20.0076 40.1037 19.6795 40.2544 19.3981L40.2501 19.4002ZM42.9408 19.669C42.8304 19.4658 42.6798 19.3092 42.493 19.2013C42.3042 19.0934 42.0984 19.0383 41.8713 19.0383C41.6443 19.0383 41.4384 19.0912 41.2538 19.197C41.0671 19.3029 40.9186 19.4573 40.8082 19.6605C40.6979 19.8637 40.6406 20.1028 40.6406 20.3758C40.6406 20.6488 40.6958 20.8964 40.8082 21.1016C40.9186 21.3069 41.0671 21.4635 41.2538 21.5714C41.4406 21.6794 41.6464 21.7344 41.8713 21.7344C42.0962 21.7344 42.3042 21.6794 42.493 21.5714C42.6819 21.4635 42.8304 21.3069 42.9408 21.1016C43.0511 20.8964 43.1084 20.6572 43.1084 20.3821C43.1084 20.107 43.0532 19.87 42.9408 19.6647V19.669Z" fill="white"/>
<path d="M45.3469 17.3047V22.2122H44.7422V17.3047H45.3469Z" fill="white"/>
<path d="M48.6933 22.1259C48.4727 22.0307 48.2965 21.8973 48.1692 21.728C48.0398 21.5566 47.9698 21.3619 47.957 21.1418H48.5809C48.5979 21.3238 48.6849 21.472 48.8376 21.5863C48.9904 21.7005 49.192 21.7577 49.4403 21.7577C49.6716 21.7577 49.8519 21.7069 49.9856 21.6053C50.1193 21.5037 50.1851 21.3767 50.1851 21.2201C50.1851 21.0635 50.1129 20.9429 49.9729 20.8646C49.8307 20.7863 49.6121 20.7101 49.3151 20.6361C49.0456 20.5662 48.8249 20.4943 48.653 20.4202C48.4833 20.3483 48.3369 20.2382 48.2138 20.0964C48.0928 19.9525 48.0313 19.7642 48.0313 19.5293C48.0313 19.3431 48.0865 19.1738 48.1968 19.0193C48.3072 18.8648 48.4642 18.7421 48.6679 18.6511C48.8716 18.5601 49.105 18.5156 49.366 18.5156C49.7692 18.5156 50.0959 18.6172 50.3442 18.8204C50.5925 19.0235 50.724 19.3007 50.7431 19.6563H50.1384C50.1257 19.4658 50.0493 19.3134 49.9092 19.1992C49.7692 19.0849 49.5824 19.0256 49.3469 19.0256C49.1305 19.0256 48.9565 19.0722 48.8291 19.1653C48.6997 19.2584 48.6361 19.379 48.6361 19.5293C48.6361 19.6478 48.6742 19.7473 48.7528 19.8234C48.8313 19.8996 48.9289 19.9631 49.0456 20.0097C49.1623 20.0562 49.3257 20.1091 49.5336 20.1642C49.7946 20.2361 50.0089 20.3059 50.1723 20.3737C50.3357 20.4414 50.4758 20.5451 50.5946 20.6826C50.7113 20.8202 50.7728 21.0001 50.7771 21.2201C50.7771 21.4191 50.7219 21.5968 50.6095 21.7577C50.4991 21.9164 50.3421 22.0412 50.1405 22.1322C49.9389 22.2232 49.7076 22.2677 49.4466 22.2677C49.1665 22.2677 48.9161 22.2211 48.6955 22.1259H48.6933Z" fill="white"/>
<path d="M52.2854 22.0368C52.0074 21.8824 51.791 21.6623 51.634 21.3766C51.4769 21.0909 51.3984 20.7608 51.3984 20.3862C51.3984 20.0116 51.4791 19.6857 51.6425 19.4022C51.8037 19.1165 52.0244 18.8985 52.3045 18.7461C52.5846 18.5938 52.8965 18.5176 53.2424 18.5176C53.5883 18.5176 53.9002 18.5938 54.1803 18.7461C54.4604 18.8985 54.679 19.1165 54.8423 19.3979C55.0036 19.6815 55.0842 20.0095 55.0842 20.3862C55.0842 20.7629 55.0015 21.093 54.8339 21.3766C54.6683 21.6623 54.4434 21.8824 54.1591 22.0368C53.8747 22.1913 53.5607 22.2696 53.2148 22.2696C52.8689 22.2696 52.5655 22.1934 52.2875 22.0368H52.2854ZM53.8238 21.5861C54.0148 21.4845 54.1697 21.3321 54.2864 21.129C54.4031 20.9258 54.4625 20.6782 54.4625 20.3862C54.4625 20.0942 54.4052 19.8466 54.2885 19.6434C54.1739 19.4402 54.0233 19.2879 53.8365 19.1884C53.6498 19.089 53.4482 19.0403 53.2318 19.0403C53.0154 19.0403 52.8074 19.089 52.6228 19.1884C52.4382 19.2879 52.2918 19.4402 52.1814 19.6434C52.0711 19.8466 52.0138 20.0942 52.0138 20.3862C52.0138 20.6782 52.069 20.9322 52.1772 21.1353C52.2854 21.3385 52.4318 21.4909 52.6122 21.5903C52.7947 21.6898 52.992 21.7406 53.2106 21.7406C53.4291 21.7406 53.6328 21.6898 53.8217 21.5882L53.8238 21.5861Z" fill="white"/>
<path d="M56.4837 17.3047V22.2122H55.8789V17.3047H56.4837Z" fill="white"/>
<path d="M60.7458 18.5762V22.2097H60.141V21.6722C60.0265 21.8584 59.8652 22.0023 59.6594 22.106C59.4535 22.2097 59.2265 22.2626 58.9782 22.2626C58.6939 22.2626 58.4392 22.2034 58.2143 22.087C57.9894 21.9706 57.8112 21.7949 57.6796 21.56C57.548 21.3251 57.4844 21.0416 57.4844 20.7051V18.5762H58.0828V20.6247C58.0828 20.9823 58.174 21.2595 58.3565 21.45C58.539 21.6405 58.7872 21.7378 59.1013 21.7378C59.4153 21.7378 59.6806 21.6383 59.8652 21.4394C60.0519 21.2405 60.1453 20.9506 60.1453 20.5718V18.5762H60.75H60.7458Z" fill="white"/>
<path d="M62.5055 19.0736V21.2152C62.5055 21.3909 62.5437 21.5157 62.618 21.5898C62.6944 21.6639 62.8238 21.6998 63.0105 21.6998H63.4561V22.2099H62.9108C62.5734 22.2099 62.3209 22.1337 62.1533 21.9771C61.9856 21.8226 61.9008 21.5686 61.9008 21.2152V19.0736H61.4297V18.5763H61.9008V17.6621H62.5055V18.5763H63.4561V19.0736H62.5055Z" fill="white"/>
<path d="M64.2087 17.8666C64.1302 17.7862 64.0898 17.6889 64.0898 17.5746C64.0898 17.4603 64.1302 17.363 64.2087 17.2826C64.2872 17.2022 64.3869 17.1641 64.5015 17.1641C64.6161 17.1641 64.7073 17.2043 64.7837 17.2826C64.8622 17.3609 64.9004 17.4582 64.9004 17.5746C64.9004 17.691 64.8622 17.7862 64.7837 17.8666C64.7073 17.9449 64.6118 17.9852 64.5015 17.9852C64.3912 17.9852 64.2893 17.9449 64.2087 17.8666ZM64.7943 18.5756V22.2091H64.1896V18.5756H64.7943Z" fill="white"/>
<path d="M66.4846 22.0368C66.2067 21.8824 65.9902 21.6623 65.8332 21.3766C65.6762 21.0909 65.5977 20.7608 65.5977 20.3862C65.5977 20.0116 65.6783 19.6857 65.8417 19.4022C66.0029 19.1165 66.2236 18.8985 66.5037 18.7461C66.7838 18.5938 67.0957 18.5176 67.4416 18.5176C67.7875 18.5176 68.0994 18.5938 68.3795 18.7461C68.6596 18.8985 68.8782 19.1165 69.0416 19.3979C69.2028 19.6815 69.2835 20.0095 69.2835 20.3862C69.2835 20.7629 69.2007 21.093 69.0331 21.3766C68.8676 21.6623 68.6426 21.8824 68.3583 22.0368C68.074 22.1913 67.7599 22.2696 67.414 22.2696C67.0682 22.2696 66.7647 22.1934 66.4867 22.0368H66.4846ZM68.0252 21.5861C68.2161 21.4845 68.371 21.3321 68.4877 21.129C68.6044 20.9258 68.6639 20.6782 68.6639 20.3862C68.6639 20.0942 68.6066 19.8466 68.4899 19.6434C68.3753 19.4402 68.2246 19.2879 68.0379 19.1884C67.8512 19.089 67.6496 19.0403 67.4331 19.0403C67.2167 19.0403 67.0087 19.089 66.8241 19.1884C66.6395 19.2879 66.4931 19.4402 66.3828 19.6434C66.2724 19.8466 66.2151 20.0942 66.2151 20.3862C66.2151 20.6782 66.2703 20.9322 66.3785 21.1353C66.4867 21.3385 66.6332 21.4909 66.8135 21.5903C66.996 21.6898 67.1934 21.7406 67.4119 21.7406C67.6305 21.7406 67.8342 21.6898 68.023 21.5882L68.0252 21.5861Z" fill="white"/>
<path d="M72.9321 18.9097C73.208 19.1764 73.3438 19.5636 73.3438 20.0673V22.2089H72.7454V20.1541C72.7454 19.7922 72.6542 19.515 72.4717 19.3224C72.2892 19.1298 72.0409 19.0346 71.7269 19.0346C71.4128 19.0346 71.1539 19.134 70.9651 19.333C70.7762 19.5319 70.6829 19.8218 70.6829 20.2027V22.211H70.0781V18.5775H70.6829V19.0938C70.8017 18.9076 70.9651 18.7658 71.1709 18.6621C71.3768 18.5606 71.6038 18.5098 71.8521 18.5098C72.2956 18.5098 72.6542 18.6431 72.93 18.9118L72.9321 18.9097Z" fill="white"/>
<path d="M74.873 22.1259C74.6524 22.0307 74.4762 21.8973 74.3489 21.728C74.2195 21.5566 74.1495 21.3619 74.1367 21.1418H74.7606C74.7775 21.3238 74.8645 21.472 75.0173 21.5863C75.1701 21.7005 75.3717 21.7577 75.62 21.7577C75.8512 21.7577 76.0316 21.7069 76.1653 21.6053C76.299 21.5037 76.3648 21.3767 76.3648 21.2201C76.3648 21.0635 76.2926 20.9429 76.1526 20.8646C76.0104 20.7863 75.7918 20.7101 75.4948 20.6361C75.2253 20.5662 75.0046 20.4943 74.8327 20.4202C74.663 20.3483 74.5165 20.2382 74.3935 20.0964C74.2725 19.9525 74.211 19.7642 74.211 19.5293C74.211 19.3431 74.2662 19.1738 74.3765 19.0193C74.4868 18.8648 74.6439 18.7421 74.8476 18.6511C75.0513 18.5601 75.2847 18.5156 75.5457 18.5156C75.9489 18.5156 76.2756 18.6172 76.5239 18.8204C76.7722 19.0235 76.9037 19.3007 76.9228 19.6563H76.3181C76.3053 19.4658 76.2289 19.3134 76.0889 19.1992C75.9489 19.0849 75.7621 19.0256 75.5266 19.0256C75.3101 19.0256 75.1361 19.0722 75.0088 19.1653C74.8794 19.2584 74.8157 19.379 74.8157 19.5293C74.8157 19.6478 74.8539 19.7473 74.9324 19.8234C75.011 19.8996 75.1086 19.9631 75.2253 20.0097C75.342 20.0562 75.5054 20.1091 75.7133 20.1642C75.9743 20.2361 76.1886 20.3059 76.352 20.3737C76.5154 20.4414 76.6555 20.5451 76.7743 20.6826C76.891 20.8202 76.9525 21.0001 76.9568 21.2201C76.9568 21.4191 76.9016 21.5968 76.7891 21.7577C76.6788 21.9164 76.5218 22.0412 76.3202 22.1322C76.1186 22.2232 75.8873 22.2677 75.6263 22.2677C75.3462 22.2677 75.0958 22.2211 74.8751 22.1259H74.873Z" fill="white"/>
</g>
<defs>
<clipPath id="clip0_1097_5992">
<rect width="90" height="24" fill="white"/>
</clipPath>
</defs>
</svg>
