<svg width="85" height="46" viewBox="0 0 85 46" fill="none" xmlns="http://www.w3.org/2000/svg">
<path fill-rule="evenodd" clip-rule="evenodd" d="M18.3931 35.3589C-6.48638 32.2471 7.78991 0.866798 34.9299 0.302402C2.2791 -4.22359 -19.0677 43.5582 24.7543 42.1411H60.9385L57.4038 45.5356L84.1237 37.9031L55.5676 32.9541L59.9497 35.2132L18.3931 35.3589Z" fill="white"/>
<path fill-rule="evenodd" clip-rule="evenodd" d="M20.0746 40.4016L19.772 40.5042L19.2933 40.6306C19.1924 40.6511 19.0519 40.6769 18.8711 40.7091C18.6907 40.7413 18.4869 40.7735 18.2601 40.8057C17.8403 40.862 17.3738 40.8901 16.8618 40.8901C15.4507 40.8901 14.3397 40.668 13.5292 40.2238C12.7186 39.7791 12.3134 39.2598 12.3134 38.6644C12.3134 37.9769 12.7751 37.4329 13.6991 37.0329C14.623 36.6326 15.6772 36.4329 16.8618 36.4329C17.3066 36.4329 17.7983 36.4628 18.3357 36.5231C18.8737 36.5834 19.4531 36.7222 20.0746 36.9395V37.416C19.6801 37.2269 19.2137 37.0723 18.676 36.9516C18.1383 36.8309 17.542 36.7705 16.887 36.7705C15.8033 36.7705 14.9337 36.9576 14.2787 37.3315C13.9429 37.5244 13.6824 37.7246 13.4974 37.9313C13.3126 38.1387 13.22 38.3488 13.22 38.5618V38.6163V38.6644C13.22 39.1392 13.5502 39.5731 14.2095 39.9671C14.8688 40.3613 15.7571 40.5585 16.8744 40.5585C17.4874 40.5585 18.0673 40.5018 18.613 40.3895C19.1591 40.2769 19.6465 40.124 20.0746 39.9312V40.4016Z" fill="#2B3B73"/>
<path fill-rule="evenodd" clip-rule="evenodd" d="M28.1103 39.0628L26.6423 37.3304L25.1704 39.0628H28.1103ZM26.6423 36.433L30.3878 40.7759H29.548L28.3893 39.4004H24.8773L23.7148 40.7736L22.8848 40.7759L26.6423 36.433Z" fill="#2B3B73"/>
<path fill-rule="evenodd" clip-rule="evenodd" d="M37.073 37.2648L37.0494 37.2349L37.0141 37.2048C36.9126 37.0961 36.7439 36.9967 36.5135 36.9061C36.2829 36.8156 35.9737 36.7705 35.5881 36.7705C35.1814 36.7705 34.8685 36.8137 34.6535 36.9001C34.4383 36.9866 34.2897 37.08 34.2115 37.1806L34.1294 37.3013V37.416C34.1294 37.6209 34.2819 37.7879 34.5868 37.9166C34.8843 38.033 35.2285 38.1379 35.6197 38.2304L35.8076 38.2785L35.995 38.3207L36.0536 38.3388C36.093 38.3428 36.1166 38.3468 36.1241 38.3505C36.6408 38.4753 37.0982 38.6245 37.4975 38.7971C37.9199 38.9658 38.1308 39.2354 38.1308 39.6052C38.1308 39.9512 37.8943 40.2518 37.421 40.507C36.9477 40.7625 36.3042 40.8901 35.4906 40.8901C34.9038 40.8901 34.4305 40.8286 34.0707 40.7062C33.7109 40.5838 33.4212 40.4456 33.2022 40.293L32.9911 40.1182L32.8387 39.9492L33.5893 39.7559L33.6247 39.8104L33.6718 39.8588C33.8048 40.0274 34.0255 40.1863 34.3345 40.335C34.6438 40.4841 35.0523 40.5585 35.5611 40.5585C36.0772 40.5585 36.4939 40.4669 36.8106 40.2841C37.1275 40.1007 37.2859 39.8829 37.2859 39.6294C37.2859 39.4326 37.1963 39.2797 37.0163 39.171C36.8598 39.0584 36.6014 38.9478 36.2416 38.8394L35.878 38.7429L35.4435 38.6345C34.8805 38.4934 34.3836 38.3365 33.9532 38.1638C33.5232 37.991 33.3077 37.7456 33.3077 37.4278C33.308 37.3516 33.3077 37.2913 33.3077 37.2467L33.4137 37.0539C33.5324 36.897 33.7558 36.7545 34.0862 36.6257C34.4167 36.4967 34.9038 36.4329 35.549 36.4329L36.0088 36.4509C36.1752 36.4509 36.3551 36.4728 36.5525 36.5173C36.7796 36.5576 36.9905 36.6196 37.1842 36.7042C37.3759 36.7883 37.552 36.9111 37.7084 37.0723L37.073 37.2648Z" fill="#2B3B73"/>
<path fill-rule="evenodd" clip-rule="evenodd" d="M41.9814 38.4535H43.3821H43.6893L44.0652 38.4173C44.2928 38.3799 44.5071 38.3055 44.7084 38.1943C44.9095 38.0826 45.0101 37.9067 45.0101 37.6661C45.0101 37.4342 44.9112 37.2615 44.714 37.1474C44.5167 37.0339 44.2965 36.9586 44.0536 36.9212L43.6893 36.8907H43.3821H41.9814V38.4535ZM41.2072 36.5533H43.416C43.4844 36.5533 43.5527 36.5533 43.6209 36.5533C43.6893 36.5533 43.7726 36.5533 43.8715 36.5533C44.0157 36.5533 44.1902 36.5694 44.3951 36.6017C44.7368 36.6507 45.0572 36.7533 45.3572 36.9112C45.657 37.0689 45.8069 37.3196 45.8069 37.6633C45.8069 37.9992 45.6627 38.2475 45.3744 38.409C45.0859 38.5708 44.7595 38.6774 44.3951 38.7311C44.304 38.743 44.2095 38.753 44.1105 38.761C44.012 38.7691 43.9321 38.7751 43.8715 38.7792H43.416H41.9814V40.7759H41.2072V36.5533Z" fill="#2B3B73"/>
<path fill-rule="evenodd" clip-rule="evenodd" d="M49.2181 36.5533H50.0751V40.7759H49.2181V36.5533Z" fill="#2B3B73"/>
<path fill-rule="evenodd" clip-rule="evenodd" d="M58.336 39.0628L56.8195 37.3304L55.2993 39.0628H58.336ZM56.8195 36.433L60.6888 40.7759H59.8215L58.6245 39.4004H54.9964L53.7951 40.7736L52.9381 40.7759L56.8195 36.433Z" fill="#2B3B73"/>
<path fill-rule="evenodd" clip-rule="evenodd" d="M63.5551 36.3844L69.7526 39.9128V36.5533H70.5463V40.9434L64.3483 37.415V40.7759H63.5551V36.3844Z" fill="#2B3B73"/>
<path fill-rule="evenodd" clip-rule="evenodd" d="M66.5718 21.3282C64.6448 24.0977 62.9011 26.3022 61.3311 27.9468C59.766 29.5906 58.6561 30.4135 58.0075 30.4135C57.6207 30.4135 57.294 30.2991 57.0215 30.0663C56.7493 29.8336 56.6152 29.5416 56.6152 29.195C56.6152 28.9722 56.6646 28.6202 56.7592 28.1348C56.858 27.6494 56.9968 27.0649 57.1801 26.3815C57.5416 25.0339 57.8983 23.8603 58.2647 22.8544C58.6265 21.8443 58.988 20.9923 59.3447 20.2841C59.9436 19.1151 60.7316 18.1684 61.7073 17.4451C62.6881 16.7275 63.6345 16.3657 64.5558 16.3657C64.8724 16.3657 65.3185 16.5045 65.8832 16.7816C66.4479 17.0546 67.1215 17.4609 67.9089 17.9902L68.4144 16.9155C68.6174 16.5194 68.7861 16.2568 68.9249 16.1182C69.0585 15.9846 69.2073 15.915 69.3702 15.915C69.5588 15.915 69.722 15.9791 69.8655 16.1033C70.0095 16.2324 70.0839 16.3754 70.0839 16.5389C70.0839 16.7815 70.0146 17.0887 69.8807 17.4557C69.8511 17.5396 69.8258 17.6141 69.8063 17.6733L66.4824 27.9713L66.5718 28.0607C67.1612 27.8575 67.8641 27.4169 68.6823 26.7382C69.499 26.064 70.3612 25.207 71.2728 24.1721L71.6193 24.504C70.4606 26.2674 69.2565 27.6937 68.0084 28.7786C66.76 29.8686 65.7545 30.4135 64.9918 30.4135C64.6696 30.4135 64.4167 30.3439 64.2189 30.2002C64.0256 30.0616 63.9316 29.8784 63.9316 29.6456C63.9316 29.5073 63.9612 29.3286 64.0156 29.1058C64.075 28.8829 64.194 28.5262 64.3676 28.0308L66.6904 21.3885L66.5718 21.3282ZM66.6904 19.6895C65.8637 19.1102 65.1303 18.6589 64.4816 18.3322C63.8325 18.0101 63.3519 17.8469 63.0298 17.8469C62.584 17.8469 61.99 18.7828 61.2469 20.66C60.5037 22.5375 59.741 25.0492 58.9683 28.194L59.2604 28.3975C60.3054 27.758 61.4647 26.6936 62.7476 25.1972C64.0308 23.7017 65.3433 21.8638 66.6904 19.6895ZM55.1047 24.9891L55.511 25.3662C54.2523 26.9511 52.9648 28.1992 51.6423 29.1108C50.3243 30.0169 49.1702 30.4727 48.1851 30.4727C47.7589 30.4727 47.3623 30.2594 47.0008 29.8335C46.6395 29.4073 46.4559 28.9274 46.4559 28.3975C46.4559 28.1348 46.4706 27.8475 46.5056 27.5356C46.5404 27.2186 46.5895 26.8718 46.6591 26.4953C46.9861 24.5535 47.3032 23.0973 47.6003 22.1314C47.9023 21.1606 48.2587 20.3583 48.6754 19.7191C48.9179 19.3625 49.299 18.9662 49.814 18.5354C50.3344 18.1092 50.9241 17.6982 51.5923 17.3118C52.2314 16.9453 52.747 16.6777 53.143 16.5142C53.5396 16.351 53.8663 16.2665 54.1187 16.2665C54.5793 16.2665 55.0601 16.445 55.5552 16.7971C56.0458 17.1484 56.2936 17.4899 56.2936 17.8173C56.2936 18.0402 56.1846 18.2926 55.9662 18.5751C55.7484 18.8524 55.4216 19.1694 54.9909 19.5159L53.2028 18.4164C52.9746 18.2776 52.747 18.1684 52.5242 18.0897C52.3013 18.0054 52.1329 17.9658 52.0136 17.9658C51.3745 17.9658 50.7307 18.9464 50.072 20.9028C49.4128 22.8646 48.9921 25.2722 48.809 28.1348L49.2444 28.571C50.1066 28.4564 51.023 28.0952 51.9987 27.496C52.9746 26.8965 54.0098 26.064 55.1047 24.9891ZM44.3411 24.7417L44.7621 25.1334C43.3847 26.7875 42.0231 28.0854 40.6655 29.0266C39.3134 29.9723 38.1544 30.4434 37.1832 30.4434C36.6928 30.4434 36.2766 30.2496 35.9401 29.8686C35.598 29.4869 35.4296 28.9969 35.4296 28.3975C35.4296 27.0798 35.6575 25.5938 36.1182 23.9348C36.5789 22.2754 37.1683 20.8239 37.8966 19.5757C38.0204 19.343 38.2188 19.095 38.4912 18.8273C38.7633 18.5598 39.1151 18.2633 39.551 17.9357C40.2939 17.3762 40.9528 16.9551 41.5175 16.6777C42.0823 16.4056 42.5775 16.2665 43.0036 16.2665C43.593 16.2665 44.1873 16.509 44.7819 16.9899C45.3762 17.4752 45.6737 17.9512 45.6737 18.4164C45.6737 18.6937 45.475 19.0308 45.0791 19.4168C44.6824 19.8033 44.0289 20.2988 43.1223 20.9083L38.3322 24.0284C38.1489 24.7612 38.0054 25.4452 37.8966 26.0746C37.7925 26.7034 37.7379 27.2037 37.7379 27.5701C37.7379 27.8968 37.7974 28.1495 37.9216 28.3182C38.0405 28.4866 38.2133 28.571 38.4362 28.571C38.8875 28.571 39.6901 28.2139 40.8436 27.496C41.9929 26.783 43.1567 25.8613 44.3411 24.7417ZM38.6394 22.9829L42.3251 20.5169C42.6714 20.2887 42.9142 20.0709 43.0582 19.8726C43.1967 19.6746 43.2662 19.4565 43.2662 19.2139C43.2662 18.892 43.0726 18.58 42.6866 18.2632C42.3001 17.9512 41.8892 17.7922 41.4529 17.7922C40.631 17.7922 39.7639 19.2832 38.8573 22.2601C38.7584 22.5772 38.6843 22.82 38.6394 22.9829ZM23.862 30.2399L23.9016 29.8967C24.6187 29.7798 25.1655 29.6467 25.5423 29.4999C25.9226 29.3533 26.2087 29.1663 26.4022 28.9398C26.5657 28.7501 26.7522 28.3428 26.9657 27.7129C27.1757 27.0862 27.389 26.2996 27.6054 25.3558L29.4794 17.0528H27.9456C26.812 17.0528 25.9389 17.2623 25.3222 17.6787C24.7089 18.0955 24.1151 18.8656 23.5421 19.9924L23.2587 19.9157L24.1655 16.4188H37.07L35.9863 19.9327L35.703 19.8959C35.703 19.8091 35.7067 19.6959 35.7136 19.5493C35.7199 19.4025 35.7233 19.2986 35.7233 19.2386C35.7233 18.3423 35.6064 17.7526 35.3765 17.4724C35.1434 17.1922 34.6163 17.0528 33.7867 17.0528H31.2661L29.1489 25.9794C29.0228 26.493 28.9293 26.9499 28.8659 27.3466C28.7989 27.7432 28.7656 28.0328 28.7656 28.2164C28.7656 28.7167 28.9193 29.0797 29.226 29.3065C29.5326 29.53 30.2324 29.7332 31.3261 29.9169L31.2661 30.2399C30.8563 30.2264 30.406 30.2166 29.9163 30.2103C29.4225 30.2034 28.6721 30.2002 27.6624 30.2002C26.6358 30.2002 25.8584 30.2034 25.3322 30.2103C24.8089 30.2166 24.3186 30.2264 23.862 30.2399ZM8.92242 30.2399L9.01124 29.8192C10.656 29.5663 11.7902 29.1998 12.4193 28.7095C13.0487 28.2193 13.5487 27.2531 13.9154 25.8116L16.4418 15.6127L16.526 15.2316C16.8872 13.7606 17.0659 12.8093 17.0659 12.3734C17.0659 11.7147 16.8228 11.229 16.3478 10.9169C15.867 10.6005 14.9057 10.3375 13.4645 10.1243L13.6131 9.70358C13.6674 9.70358 13.7568 9.70358 13.8706 9.70358C16.2731 9.74352 18.0465 9.76279 19.1955 9.76279C19.8544 9.76279 20.5678 9.75792 21.3308 9.74819C22.0935 9.73836 23.1237 9.72345 24.4215 9.70358L24.308 10.1243C22.6881 10.3775 21.5635 10.7537 20.9295 11.264C20.3002 11.7742 19.7998 12.7254 19.4434 14.1318L16.9074 24.3207C16.8872 24.4147 16.8576 24.5388 16.8179 24.6974C16.5059 25.9752 16.3524 26.8766 16.3524 27.4117C16.3524 28.1446 16.5703 28.6748 17.0014 28.9969C17.4324 29.3231 18.3436 29.5961 19.7354 29.8192L19.6464 30.2399C18.9877 30.2203 18.2796 30.2051 17.5212 30.1954C16.7636 30.1855 15.6391 30.1807 14.1482 30.1807C12.6969 30.1807 11.6115 30.1855 10.8939 30.1954C10.1806 30.2051 9.52159 30.2203 8.92242 30.2399Z" fill="white"/>
</svg>
